<svg version="1.1" xmlns="http://www.w3.org/2000/svg" width="702px" height="260px" transform="rotate(0) scale(1, 1)">
<path d="M0 0 C231.66 0 463.32 0 702 0 C702 85.8 702 171.6 702 260 C470.34 260 238.68 260 0 260 C0 174.2 0 88.4 0 0 Z " fill="#040404" transform="translate(0,0)"/>
<path d="M0 0 C80.52 0 161.04 0 244 0 C244 85.8 244 171.6 244 260 C116.95 260 -10.1 260 -141 260 C-134.2463712 252.1207664 -134.2463712 252.1207664 -131.1953125 249.28125 C-130.19564453 248.34732422 -130.19564453 248.34732422 -129.17578125 247.39453125 C-128.49902344 246.76933594 -127.82226562 246.14414063 -127.125 245.5 C-126.45597656 244.87480469 -125.78695313 244.24960938 -125.09765625 243.60546875 C-121.04858646 239.8372593 -116.92253147 236.17107882 -112.75 232.54052734 C-107.40428036 227.83468318 -102.59695119 222.64106102 -97.96484375 217.2421875 C-96.06870768 215.07840598 -94.11711908 212.97477481 -92.15014648 210.87548828 C-85.65229616 203.91196812 -79.72861596 196.60506698 -74 189 C-73.48679199 188.32195312 -72.97358398 187.64390625 -72.44482422 186.9453125 C-63.78349653 175.43552261 -56.17305898 163.48458013 -49 151 C-48.34088623 149.86328857 -48.34088623 149.86328857 -47.66845703 148.70361328 C-20.95353162 102.48608423 -6.5987481 52.78998477 0 0 Z " fill="#252a34" transform="translate(458,0)"/>
<path d="M0 0 C0.33 0 0.66 0 1 0 C1 58.08 1 116.16 1 176 C-57.08 176 -115.16 176 -175 176 C-171.93098929 172.93098929 -170.32733737 171.41238933 -166.7265625 169.51953125 C-165.90776611 169.08205566 -165.08896973 168.64458008 -164.24536133 168.19384766 C-163.38064209 167.73800293 -162.51592285 167.2821582 -161.625 166.8125 C-155.27481353 163.37899916 -148.94947877 159.92973051 -142.8125 156.125 C-141.70519531 155.44695312 -140.59789062 154.76890625 -139.45703125 154.0703125 C-136.79166012 152.20069996 -136.79166012 152.20069996 -136.13671875 149.2421875 C-136.09160156 148.50226563 -136.04648437 147.76234375 -136 147 C-136.99 146.67 -137.98 146.34 -139 146 C-139 145.34 -139 144.68 -139 144 C-138.01 143.67 -137.02 143.34 -136 143 C-136 142.01 -136 141.02 -136 140 C-135.01 140.33 -134.02 140.66 -133 141 C-132.01 141 -131.02 141 -130 141 C-130 141.66 -130 142.32 -130 143 C-128.15996902 143.68711627 -128.15996902 143.68711627 -126 144 C-123.53209058 142.50833976 -121.38349563 141.0153376 -119.125 139.25 C-118.46516113 138.74847412 -117.80532227 138.24694824 -117.12548828 137.73022461 C-115.7502547 136.68084234 -114.37969237 135.62531237 -113.01367188 134.56396484 C-111.13910975 133.1080428 -109.25169617 131.67099429 -107.359375 130.23828125 C-100.59405443 125.06784501 -94.21680196 119.62010089 -88.08544922 113.70727539 C-84.20257577 110 -84.20257577 110 -82 110 C-82 109.34 -82 108.68 -82 108 C-80.7421875 106.765625 -80.7421875 106.765625 -78.875 105.25 C-69.50204305 97.25884665 -60.82137858 88.41744192 -53.19140625 78.75 C-51.2272045 76.28511937 -49.19384809 73.8994214 -47.12402344 71.52319336 C-30.85631216 52.74942208 -17.7641298 31.65416609 -6.1875 9.74365234 C-5.66929687 8.76477051 -5.15109375 7.78588867 -4.6171875 6.77734375 C-4.15940918 5.90327881 -3.70163086 5.02921387 -3.22998047 4.12866211 C-2 2 -2 2 0 0 Z " fill="#252a34" transform="translate(701,84)"/>
<path d="M0 0 C0.33 0 0.66 0 1 0 C1 4.62 1 9.24 1 14 C-3.62 14 -8.24 14 -13 14 C-11.68 13.01 -10.36 12.02 -9 11 C-3.12000451 6.5450755 -3.12000451 6.5450755 0 0 Z " fill="#000000" transform="translate(701,246)"/>
<path d="M0 0 C0.99 1.32 1.98 2.64 3 4 C7.4549245 9.87999549 7.4549245 9.87999549 14 13 C14 13.33 14 13.66 14 14 C9.38 14 4.76 14 0 14 C0 9.38 0 4.76 0 0 Z " fill="#000000" transform="translate(0,246)"/>
<path d="M0 0 C4.62 0 9.24 0 14 0 C14 4.62 14 9.24 14 14 C13.01 12.68 12.02 11.36 11 10 C6.5450755 4.12000451 6.5450755 4.12000451 0 1 C0 0.67 0 0.34 0 0 Z " fill="#000000" transform="translate(688,0)"/>
<path d="M0 0 C4.62 0 9.24 0 14 0 C12.68 0.99 11.36 1.98 10 3 C4.12000451 7.4549245 4.12000451 7.4549245 1 14 C0.67 14 0.34 14 0 14 C0 9.38 0 4.76 0 0 Z " fill="#000000" transform="translate(0,0)"/>
<path d="M0 0 C0.598125 0.165 1.19625 0.33 1.8125 0.5 C4.11344336 1.1114124 4.11344336 1.1114124 7 1 C6.67 1.66 6.34 2.32 6 3 C6.99 3.33 7.98 3.66 9 4 C9 4.66 9 5.32 9 6 C8.01 6 7.02 6 6 6 C6.33 6.99 6.66 7.98 7 9 C6.01 9 5.02 9 4 9 C2.66018514 9.3062434 1.32488113 9.63451555 0 10 C0 9.01 0 8.02 0 7 C-0.66 6.67 -1.32 6.34 -2 6 C-2 5.34 -2 4.68 -2 4 C-1.34 3.67 -0.68 3.34 0 3 C0 2.01 0 1.02 0 0 Z " fill="#f9f5f0" transform="translate(511,224)"/>
<path d="M0 0 C0.598125 0.165 1.19625 0.33 1.8125 0.5 C4.11344336 1.1114124 4.11344336 1.1114124 7 1 C6.67 1.66 6.34 2.32 6 3 C6.99 3.33 7.98 3.66 9 4 C9 4.66 9 5.32 9 6 C8.01 6.33 7.02 6.66 6 7 C6 7.99 6 8.98 6 10 C5.01 9.67 4.02 9.34 3 9 C2.01 9.33 1.02 9.66 0 10 C0 9.01 0 8.02 0 7 C-0.66 6.67 -1.32 6.34 -2 6 C-2 5.34 -2 4.68 -2 4 C-1.34 3.67 -0.68 3.34 0 3 C0 2.01 0 1.02 0 0 Z " fill="#f9f5f0" transform="translate(614,224)"/>
<path d="M0 0 C0.66 0 1.32 0 2 0 C2 0.66 2 1.32 2 2 C2.66 2 3.32 2 4 2 C4 1.34 4 0.68 4 0 C4.99 0.33 5.98 0.66 7 1 C6.67 1.66 6.34 2.32 6 3 C6.66 3.33 7.32 3.66 8 4 C8 4.66 8 5.32 8 6 C7.01 6.495 7.01 6.495 6 7 C6 7.99 6 8.98 6 10 C5.34 10 4.68 10 4 10 C4 9.34 4 8.68 4 8 C3.34 8 2.68 8 2 8 C2 8.66 2 9.32 2 10 C1.01 9.67 0.02 9.34 -1 9 C-0.67 8.34 -0.34 7.68 0 7 C-0.66 6.67 -1.32 6.34 -2 6 C-2 5.34 -2 4.68 -2 4 C-1.34 3.67 -0.68 3.34 0 3 C0 2.01 0 1.02 0 0 Z " fill="#f9f5f0" transform="translate(632,224)"/>
<path d="M0 0 C0.66 0 1.32 0 2 0 C2 0.66 2 1.32 2 2 C2.66 2 3.32 2 4 2 C4 1.34 4 0.68 4 0 C4.99 0.33 5.98 0.66 7 1 C6.67 1.66 6.34 2.32 6 3 C6.66 3.33 7.32 3.66 8 4 C8 4.66 8 5.32 8 6 C7.01 6.495 7.01 6.495 6 7 C6 7.99 6 8.98 6 10 C5.34 10 4.68 10 4 10 C4 9.34 4 8.68 4 8 C3.34 8 2.68 8 2 8 C2 8.66 2 9.32 2 10 C1.01 9.67 0.02 9.34 -1 9 C-0.67 8.34 -0.34 7.68 0 7 C-0.66 6.67 -1.32 6.34 -2 6 C-2 5.34 -2 4.68 -2 4 C-1.34 3.67 -0.68 3.34 0 3 C0 2.01 0 1.02 0 0 Z " fill="#f9f5f0" transform="translate(547,224)"/>
<path d="M0 0 C0.66 0 1.32 0 2 0 C2 0.66 2 1.32 2 2 C2.66 2 3.32 2 4 2 C4 1.34 4 0.68 4 0 C4.99 0.33 5.98 0.66 7 1 C6.67 1.66 6.34 2.32 6 3 C6.66 3.33 7.32 3.66 8 4 C8 4.66 8 5.32 8 6 C7.01 6.495 7.01 6.495 6 7 C6 7.99 6 8.98 6 10 C5.34 10 4.68 10 4 10 C4 9.34 4 8.68 4 8 C3.34 8 2.68 8 2 8 C2 8.66 2 9.32 2 10 C1.34 10 0.68 10 0 10 C0 9.01 0 8.02 0 7 C-0.66 6.67 -1.32 6.34 -2 6 C-2 5.34 -2 4.68 -2 4 C-1.34 3.67 -0.68 3.34 0 3 C0 2.01 0 1.02 0 0 Z " fill="#f9f5f0" transform="translate(529,224)"/>
<path d="M0 0 C0.66 0 1.32 0 2 0 C2 0.66 2 1.32 2 2 C2.66 2 3.32 2 4 2 C4 1.34 4 0.68 4 0 C4.99 0.33 5.98 0.66 7 1 C6.67 1.66 6.34 2.32 6 3 C6.66 3.33 7.32 3.66 8 4 C8 4.66 8 5.32 8 6 C7.01 6.495 7.01 6.495 6 7 C6 7.66 6 8.32 6 9 C4.02 9.33 2.04 9.66 0 10 C0 9.01 0 8.02 0 7 C-0.66 6.67 -1.32 6.34 -2 6 C-2 5.34 -2 4.68 -2 4 C-1.34 3.67 -0.68 3.34 0 3 C0 2.01 0 1.02 0 0 Z " fill="#f9f5f0" transform="translate(650,224)"/>
<path d="M0 0 C0.99 0.33 1.98 0.66 3 1 C3.99 1 4.98 1 6 1 C6 1.66 6 2.32 6 3 C6.66 3.33 7.32 3.66 8 4 C8 4.66 8 5.32 8 6 C7.01 6 6.02 6 5 6 C5.33 6.99 5.66 7.98 6 9 C5.01 9.495 5.01 9.495 4 10 C3.67 9.34 3.34 8.68 3 8 C2.01 8.66 1.02 9.32 0 10 C0 9.01 0 8.02 0 7 C-0.99 6.67 -1.98 6.34 -3 6 C-3 5.34 -3 4.68 -3 4 C-2.01 3.67 -1.02 3.34 0 3 C0 2.01 0 1.02 0 0 Z " fill="#f9f5f0" transform="translate(668,224)"/>
<path d="M0 0 C0.99 0.33 1.98 0.66 3 1 C3.99 1 4.98 1 6 1 C6 1.66 6 2.32 6 3 C6.66 3.33 7.32 3.66 8 4 C8 4.66 8 5.32 8 6 C7.01 6 6.02 6 5 6 C5.33 6.99 5.66 7.98 6 9 C5.01 9.495 5.01 9.495 4 10 C3.67 9.34 3.34 8.68 3 8 C2.01 8.66 1.02 9.32 0 10 C0 9.01 0 8.02 0 7 C-0.99 6.67 -1.98 6.34 -3 6 C-3 5.34 -3 4.68 -3 4 C-2.01 3.67 -1.02 3.34 0 3 C0 2.01 0 1.02 0 0 Z " fill="#f9f5f0" transform="translate(565,224)"/>
</svg>