<svg version="1.1" xmlns="http://www.w3.org/2000/svg" width="360px" height="360px" transform="rotate(0) scale(1, 1)">
<path d="M0 0 C1.35573748 1.31054623 2.68612831 2.64748503 4 4 C22.51653358 19.9447928 45.21288488 24.29179265 69 23 C85.70089755 21.69249552 101.15412798 14.56068235 114 4 C115.66666667 2.66666667 117.33333333 1.33333333 119 0 C127.51873839 4.46668363 134.1406565 10.38939141 141 17 C142.03060547 17.91845703 142.03060547 17.91845703 143.08203125 18.85546875 C154.62384634 29.47393863 163.35233901 43.9100151 170 58 C170.52980469 59.10601562 171.05960938 60.21203125 171.60546875 61.3515625 C178.73328805 77.58613293 183.17082022 96.72175411 183.125 114.5 C183.12757813 115.5209375 183.13015625 116.541875 183.1328125 117.59375 C183 120 183 120 182 121 C179.62988769 121.11314585 177.28827559 121.1611464 174.91699219 121.1673584 C174.16703067 121.17315178 173.41706915 121.17894517 172.64438152 121.18491411 C170.11188571 121.20306277 167.57941235 121.21387139 165.046875 121.22460938 C163.23869113 121.23577854 161.43050936 121.24729167 159.62232971 121.25912476 C153.66491602 121.29576692 147.70748078 121.3209181 141.75 121.34375 C140.73696682 121.34769587 139.72393364 121.35164173 138.68020248 121.35570717 C129.12720757 121.39213943 119.57420538 121.42358989 110.02116394 121.44481659 C97.79741498 121.4723764 85.57424732 121.52309628 73.35074043 121.60529089 C64.75957368 121.66110398 56.16856448 121.69005615 47.57722282 121.6992898 C42.44527267 121.70554572 37.31400312 121.72365261 32.18225098 121.77067566 C27.34918599 121.81440992 22.51717208 121.82480969 17.68394279 121.81004715 C15.91386434 121.81037529 14.14374012 121.82261193 12.37384224 121.84789658 C-3.74225047 122.06589664 -3.74225047 122.06589664 -10.66365051 115.69806671 C-12 114 -12 114 -12 112 C-12.66 112 -13.32 112 -14 112 C-15.65625 110.28515625 -15.65625 110.28515625 -17.5 108.0625 C-19.88926999 105.07954821 -19.88926999 105.07954821 -23 103 C-23 102.34 -23 101.68 -23 101 C-23.66 101 -24.32 101 -25 101 C-25.103125 100.360625 -25.20625 99.72125 -25.3125 99.0625 C-25.539375 98.381875 -25.76625 97.70125 -26 97 C-27.485 96.505 -27.485 96.505 -29 96 C-29 95.34 -29 94.68 -29 94 C-29.66 93.67 -30.32 93.34 -31 93 C-31.66 92.34 -32.32 91.68 -33 91 C-33 90.01 -33 89.02 -33 88 C-33.66 88 -34.32 88 -35 88 C-35 87.01 -35 86.02 -35 85 C-35.66 84.67 -36.32 84.34 -37 84 C-38.22269012 81.82862019 -39.35041624 79.67542779 -40.4375 77.4375 C-40.90555054 76.48230469 -40.90555054 76.48230469 -41.38305664 75.5078125 C-44.69022571 68.68324717 -47 63.73001738 -47 56 C-32.48 55.67 -17.96 55.34 -3 55 C-3 54.01 -3 53.02 -3 52 C-3.61875 51.7525 -4.2375 51.505 -4.875 51.25 C-7.40358627 49.76259631 -7.71839004 48.56321991 -9 46 C-10.31403276 45.29605388 -11.6520257 44.63654342 -13 44 C-15.14223758 42.44057705 -17.03062715 40.79033895 -19 39 C-19 38.34 -19 37.68 -19 37 C-19.66 37 -20.32 37 -21 37 C-22.5859375 35.390625 -22.5859375 35.390625 -24.375 33.25 C-26.33371653 30.93143575 -28.23225426 28.77965621 -30.4375 26.6875 C-32 25 -32 25 -32 22 C-30.63068984 20.82175637 -29.25535924 19.64541959 -27.80078125 18.57421875 C-25.79275872 16.91312138 -25.79275872 16.91312138 -23.734375 14.16015625 C-20.90333721 10.68897424 -17.61011901 8.2737085 -13.9375 5.75 C-13.32583984 5.316875 -12.71417969 4.88375 -12.08398438 4.4375 C-3.8958533 -1.29861777 -3.8958533 -1.29861777 0 0 Z " fill="#ffffff" transform="translate(156,207)"/>
<path d="M0 0 C17.53009321 15.11418121 26.51396549 33.49182242 28.84375 56.33203125 C29.69467673 74.8751429 22.23640889 94.289641 10.0859375 108.06640625 C-4.63753562 123.30831153 -22.68126554 132.89631604 -44.07519531 133.35205078 C-64.1191627 133.56981927 -83.5974267 127.16628555 -98.375 113.1875 C-98.375 112.5275 -98.375 111.8675 -98.375 111.1875 C-99.035 111.1875 -99.695 111.1875 -100.375 111.1875 C-114.46855612 96.78921835 -121.25975131 77.10804935 -121.50390625 57.34765625 C-121.31411374 41.05863836 -115.75663375 27.38539155 -106.375 14.1875 C-105.62222536 13.00175694 -104.87187516 11.81446784 -104.125 10.625 C-103.25875 9.4184375 -103.25875 9.4184375 -102.375 8.1875 C-101.715 8.1875 -101.055 8.1875 -100.375 8.1875 C-100.08689453 7.36378906 -100.08689453 7.36378906 -99.79296875 6.5234375 C-92.47794768 -5.52720327 -74.26283318 -11.50773128 -61.5 -14.6875 C-39.44128927 -18.83592871 -17.89331177 -13.61569192 0 0 Z " fill="#ffffff" transform="translate(261.375,85.8125)"/>
<path d="M0 0 C9.50031106 8.00663609 16.00425939 16.62640825 18 29 C16.71416016 30.051875 16.71416016 30.051875 15.40234375 31.125 C6.03974269 38.85985831 -1.57342351 46.61036801 -8 57 C-8.66515625 58.06347656 -8.66515625 58.06347656 -9.34375 59.1484375 C-16.22369549 70.76883323 -18.42872349 83.92478541 -21 97 C-33.50180436 100.99163613 -47.08479682 99.98861891 -58.87304688 94.05761719 C-62.74318191 91.94282204 -66.49733299 89.68809328 -70 87 C-70 86.34 -70 85.68 -70 85 C-70.66 85 -71.32 85 -72 85 C-72 84.34 -72 83.68 -72 83 C-73.485 82.505 -73.485 82.505 -75 82 C-75 81.34 -75 80.68 -75 80 C-75.99 79.67 -76.98 79.34 -78 79 C-79.42557561 76.68343964 -80.72604208 74.39442693 -82 72 C-82.7734375 70.7625 -82.7734375 70.7625 -83.5625 69.5 C-89.94161448 58.40588786 -91.59925415 44.86224168 -88.9375 32.375 C-84.548038 16.20544694 -75.35409057 3.62052324 -61.14453125 -5.14453125 C-41.83385415 -15.77535761 -17.45990186 -12.64754664 0 0 Z " fill="#fd0000" transform="translate(149,43)"/>
<path d="M0 0 C2.375 1.375 2.375 1.375 4 3 C4 3.66 4 4.32 4 5 C5.98 5.66 7.96 6.32 10 7 C10 7.66 10 8.32 10 9 C10.52851562 9.1134375 11.05703125 9.226875 11.6015625 9.34375 C15.76541481 10.48304509 19.71082136 12.232462 23.7109375 13.84375 C31.08180192 16.43493274 38.13614008 16.0248685 45.83203125 15.69726562 C52.30761791 15.56659235 52.30761791 15.56659235 55.52734375 17.58203125 C57.41316348 20.67837718 57.88834394 23.29223012 58.4375 26.875 C60.14932364 36.72250977 62.87833027 45.99481935 68.375 54.4375 C70.26192406 57.47341719 71.00174239 59.01122872 71.5625 62.625 C69.36973363 67.36137536 65.95697746 69.3713869 61.6640625 72.203125 C59.03969961 73.84851894 59.03969961 73.84851894 57.2734375 75.734375 C56 77 56 77 54 77 C54 77.66 54 78.32 54 79 C52.125 81.125 52.125 81.125 50 83 C49.34 83 48.68 83 48 83 C48 83.66 48 84.32 48 85 C47.34 85 46.68 85 46 85 C46 85.66 46 86.32 46 87 C44.2421875 87.65625 44.2421875 87.65625 42 88 C36.78924072 85.38407226 32.7950788 80.93343769 29.2265625 76.41796875 C28.03567522 74.85788449 28.03567522 74.85788449 26 74 C26 73.34 26 72.68 26 72 C25.34 72 24.68 72 24 72 C24 71.34 24 70.68 24 70 C23.443125 69.773125 22.88625 69.54625 22.3125 69.3125 C19.35308639 67.63283282 17.37591214 65.43248148 15 63 C13.96912957 62.11230602 12.9273128 61.23716717 11.875 60.375 C7.53191489 56.78723404 7.53191489 56.78723404 6 55 C6 54.34 6 53.68 6 53 C5.34 53 4.68 53 4 53 C3.34 52.34 2.68 51.68 2 51 C-1.20053914 50.66047901 -1.20053914 50.66047901 -3.5 53.3125 C-4.325 54.199375 -5.15 55.08625 -6 56 C-7.6875 57.8125 -7.6875 57.8125 -9 59 C-9.66 59 -10.32 59 -11 59 C-11 59.66 -11 60.32 -11 61 C-11.66 61 -12.32 61 -13 61 C-13 61.66 -13 62.32 -13 63 C-14.5390625 64.48046875 -14.5390625 64.48046875 -16.625 66.1875 C-19.33466777 68.4835869 -21.75296716 70.75017804 -24 73.5 C-26.74624426 76.84816082 -29.83484879 79.56962849 -33.16796875 82.32421875 C-35.09381427 83.96484641 -35.09381427 83.96484641 -36.55078125 86.20703125 C-37.02902344 86.79871094 -37.50726563 87.39039063 -38 88 C-38.99 88 -39.98 88 -41 88 C-41.495 88.99 -41.495 88.99 -42 90 C-48.15234375 90.09765625 -48.15234375 90.09765625 -50 90 C-51 89 -51 89 -51.125 85.1875 C-51.0977645 83.45804584 -51.05488247 81.72879767 -51 80 C-50.97164062 79.09636719 -50.94328125 78.19273437 -50.9140625 77.26171875 C-49.94696585 60.24542292 -43.98055957 44.31458523 -35 30 C-34.43410156 29.08992188 -33.86820313 28.17984375 -33.28515625 27.2421875 C-30.32447574 22.62381546 -30.32447574 22.62381546 -29 21 C-28.34 21 -27.68 21 -27 21 C-26.7525 20.443125 -26.505 19.88625 -26.25 19.3125 C-23.53304282 14.28612922 -19.77433458 10.76270048 -15.375 7.1875 C-13.93253906 6.00220703 -13.93253906 6.00220703 -12.4609375 4.79296875 C-10 3 -10 3 -8 3 C-8 2.34 -8 1.68 -8 1 C-5.19084526 -0.40457737 -3.11189466 -0.24895157 0 0 Z " fill="#fffcfc" transform="translate(72,133)"/>
<path d="M0 0 C3.18559952 1.39633107 5.23943845 3.04557493 7.625 5.5625 C10.04521959 8.14015389 10.04521959 8.14015389 13 10 C13 10.66 13 11.32 13 12 C13.66 12 14.32 12 15 12 C16.36176922 13.64351457 17.68962066 15.31522656 19 17 C21.39687954 19.51979644 23.78405667 21.82724533 26.5 24 C29.2153888 26.17231104 31.64416636 28.44223777 34 31 C34 31.66 34 32.32 34 33 C35.485 33.495 35.485 33.495 37 34 C37 34.66 37 35.32 37 36 C37.53109375 36.20367187 38.0621875 36.40734375 38.609375 36.6171875 C42.02874104 38.59505609 44.51337921 41.30326899 47.25 44.125 C47.80429688 44.68832031 48.35859375 45.25164062 48.9296875 45.83203125 C50.29104485 47.21686028 51.64614859 48.60783204 53 50 C52.505 50.99 52.505 50.99 52 52 C51.22285645 52.02505615 50.44571289 52.0501123 49.64501953 52.07592773 C46.13816931 52.19166796 42.63160255 52.31449352 39.125 52.4375 C37.90167969 52.47681641 36.67835937 52.51613281 35.41796875 52.55664062 C34.25136719 52.59853516 33.08476563 52.64042969 31.8828125 52.68359375 C30.26463623 52.73858032 30.26463623 52.73858032 28.61376953 52.79467773 C26.01930464 52.83376643 26.01930464 52.83376643 24 54 C23.16200283 63.2179689 26.12758769 71.36101884 29 80 C29.31066406 80.94488281 29.62132813 81.88976562 29.94140625 82.86328125 C34.69825181 95.89661145 47.12566638 118.56283319 60 125 C60 125.99 60 126.98 60 128 C45.78308055 128.80473129 31.06589327 122.09758427 19 115 C17.98131338 114.01904252 16.97955641 113.02003394 16 112 C14.96875 111.34 13.9375 110.68 12.875 110 C10 108 10 108 9 105 C6.99983534 103.79117904 6.99983534 103.79117904 5 103 C5 102.34 5 101.68 5 101 C4.401875 100.773125 3.80375 100.54625 3.1875 100.3125 C-0.45320921 98.12807447 -1.69198068 94.92405795 -3 91 C-3.66 91 -4.32 91 -5 91 C-5 90.01 -5 89.02 -5 88 C-5.66 88 -6.32 88 -7 88 C-7.67154933 86.71086513 -8.33708859 85.41859796 -9 84.125 C-9.37125 83.40570313 -9.7425 82.68640625 -10.125 81.9453125 C-11 80 -11 80 -11 78 C-11.66 78 -12.32 78 -13 78 C-21 57.54150198 -21 57.54150198 -21 52 C-30.57 52 -40.14 52 -50 52 C-50 49 -50 49 -48.3203125 46.95703125 C-47.23363281 45.89548828 -47.23363281 45.89548828 -46.125 44.8125 C-45.40570313 44.09707031 -44.68640625 43.38164062 -43.9453125 42.64453125 C-42 41 -42 41 -40 41 C-40 40.34 -40 39.68 -40 39 C-35.69767442 34.23255814 -35.69767442 34.23255814 -32 33 C-31.31513275 31.67592331 -30.65129797 30.34090759 -30 29 C-28 26.75 -28 26.75 -26 25 C-25.34 25 -24.68 25 -24 25 C-24 24.34 -24 23.68 -24 23 C-23.34 23 -22.68 23 -22 23 C-21.67 22.01 -21.34 21.02 -21 20 C-20.34 20 -19.68 20 -19 20 C-18.505 18.515 -18.505 18.515 -18 17 C-17.34 17 -16.68 17 -16 17 C-16 16.34 -16 15.68 -16 15 C-14.34997172 13.64613064 -12.6825613 12.31321858 -11 11 C-10.67 10.34 -10.34 9.68 -10 9 C-9.34 9 -8.68 9 -8 9 C-8 8.34 -8 7.68 -8 7 C-6.36395804 5.62926214 -4.69321939 4.29944744 -3 3 C-1.9826127 2.01769502 -0.97403883 1.02530403 0 0 Z " fill="#fd0000" transform="translate(72,199)"/>
<path d="M0 0 C1.32 0.66 2.64 1.32 4 2 C3.443125 2.061875 2.88625 2.12375 2.3125 2.1875 C-2.16880712 3.76201331 -4.8547 7.81602113 -7.8125 11.375 C-11.18106737 15.35681937 -15.01617309 18.65083266 -19 22 C-20.3340927 23.14494912 -21.66747788 24.29072339 -23 25.4375 C-23.99 26.283125 -24.98 27.12875 -26 28 C-26 27.01 -26 26.02 -26 25 C-25.34 25 -24.68 25 -24 25 C-24 24.34 -24 23.68 -24 23 C-23.34 23 -22.68 23 -22 23 C-21.67 22.01 -21.34 21.02 -21 20 C-20.34 20 -19.68 20 -19 20 C-18.67 19.01 -18.34 18.02 -18 17 C-17.34 17 -16.68 17 -16 17 C-16 16.34 -16 15.68 -16 15 C-14.34997172 13.64613064 -12.6825613 12.31321858 -11 11 C-10.67 10.34 -10.34 9.68 -10 9 C-9.34 9 -8.68 9 -8 9 C-8 8.34 -8 7.68 -8 7 C-6.36395804 5.62926214 -4.69321939 4.29944744 -3 3 C-1.9826127 2.01769502 -0.97403883 1.02530403 0 0 Z " fill="#ffffff" transform="translate(72,199)"/>
<path d="M0 0 C0.66 0 1.32 0 2 0 C1.625 2.4375 1.625 2.4375 1 5 C0.01 5.495 0.01 5.495 -1 6 C-1.66 6.66 -2.32 7.32 -3 8 C-4.36341559 9.05678397 -5.73963974 10.09715206 -7.125 11.125 C-7.84945312 11.66382813 -8.57390625 12.20265625 -9.3203125 12.7578125 C-9.87460938 13.16773438 -10.42890625 13.57765625 -11 14 C-11 13.01 -11 12.02 -11 11 C-9.57629129 9.77494832 -8.14442966 8.55717595 -6.66015625 7.40625 C-4.95020749 5.95782282 -3.63712853 4.44314924 -2.25 2.6875 C-1.5075 1.800625 -0.765 0.91375 0 0 Z " fill="#ffffff" transform="translate(135,218)"/>
<path d="M0 0 C0.66 0.33 1.32 0.66 2 1 C-1.96 4.96 -5.92 8.92 -10 13 C-10 10 -10 10 -9 8 C-8.34 8 -7.68 8 -7 8 C-6.773125 7.4225 -6.54625 6.845 -6.3125 6.25 C-4.66961977 3.4336339 -2.60466773 1.91922886 0 0 Z " fill="#ffffff" transform="translate(168,86)"/>
</svg>